<svg width="36" height="36" viewBox="0 0 36 36" fill="none" xmlns="http://www.w3.org/2000/svg">
<rect width="36" height="36" rx="18" fill="url(#paint0_linear_117_516)"/>
<rect width="36" height="36" rx="18" fill="#B28D3A"/>
<path d="M13.9197 17.6711C14.6976 19.2616 15.9869 20.545 17.5809 21.3157C17.6975 21.371 17.8265 21.395 17.9552 21.3852C18.0839 21.3755 18.2079 21.3324 18.3148 21.2602L20.6619 19.6951C20.7657 19.6259 20.8852 19.5837 21.0094 19.5723C21.1337 19.5608 21.2588 19.5806 21.3735 19.6298L25.7644 21.5116C25.9136 21.575 26.0381 21.6851 26.1193 21.8254C26.2004 21.9657 26.2338 22.1285 26.2143 22.2894C26.0755 23.3754 25.5456 24.3736 24.7239 25.0971C23.9021 25.8205 22.8448 26.2196 21.75 26.2197C18.3685 26.2197 15.1255 24.8764 12.7344 22.4853C10.3433 20.0942 9 16.8512 9 13.4697C9.00006 12.3749 9.39918 11.3176 10.1226 10.4958C10.8461 9.67408 11.8443 9.1442 12.9303 9.00542C13.0912 8.98595 13.254 9.01929 13.3943 9.10042C13.5346 9.18156 13.6447 9.30609 13.7081 9.45525L15.5916 13.85C15.6403 13.9637 15.6601 14.0877 15.6494 14.2109C15.6386 14.3341 15.5975 14.4527 15.5298 14.5562L13.9701 16.9393C13.8991 17.0465 13.8572 17.1703 13.8483 17.2986C13.8395 17.4268 13.864 17.5552 13.9197 17.6711V17.6711Z" stroke="white" stroke-width="1.5" stroke-linecap="round" stroke-linejoin="round"/>
<defs>
<linearGradient id="paint0_linear_117_516" x1="18" y1="0" x2="18" y2="36" gradientUnits="userSpaceOnUse">
<stop stop-color="#264E38"/>
<stop offset="1" stop-color="#0C635D"/>
</linearGradient>
</defs>
</svg>
