<svg width="42" height="42" viewBox="0 0 42 42" fill="none" xmlns="http://www.w3.org/2000/svg">
<path d="M10.5 38.5V7C10.5 6.07174 10.8687 5.1815 11.5251 4.52513C12.1815 3.86875 13.0717 3.5 14 3.5H28C28.9283 3.5 29.8185 3.86875 30.4749 4.52513C31.1313 5.1815 31.5 6.07174 31.5 7V38.5M10.5 38.5H31.5M10.5 38.5H7C6.07174 38.5 5.1815 38.1313 4.52513 37.4749C3.86875 36.8185 3.5 35.9283 3.5 35V24.5C3.5 23.5717 3.86875 22.6815 4.52513 22.0251C5.1815 21.3687 6.07174 21 7 21H10.5M31.5 38.5H35C35.9283 38.5 36.8185 38.1313 37.4749 37.4749C38.1313 36.8185 38.5 35.9283 38.5 35V19.25C38.5 18.3217 38.1313 17.4315 37.4749 16.7751C36.8185 16.1187 35.9283 15.75 35 15.75H31.5M17.5 10.5H24.5M17.5 17.5H24.5M17.5 24.5H24.5M17.5 31.5H24.5" stroke="white" stroke-width="2" stroke-linecap="round" stroke-linejoin="round"/>
</svg>
