<svg width="42" height="42" viewBox="0 0 42 42" fill="none" xmlns="http://www.w3.org/2000/svg">
<path d="M35 17.5C35 28 21 38.5 21 38.5C21 38.5 7 28 7 17.5C7 13.787 8.475 10.226 11.1005 7.60051C13.726 4.975 17.287 3.5 21 3.5C24.713 3.5 28.274 4.975 30.8995 7.60051C33.525 10.226 35 13.787 35 17.5Z" stroke="white" stroke-width="2" stroke-linecap="round" stroke-linejoin="round"/>
<path d="M21 22.75C23.8995 22.75 26.25 20.3995 26.25 17.5C26.25 14.6005 23.8995 12.25 21 12.25C18.1005 12.25 15.75 14.6005 15.75 17.5C15.75 20.3995 18.1005 22.75 21 22.75Z" stroke="white" stroke-width="2" stroke-linecap="round" stroke-linejoin="round"/>
</svg>
