<svg width="32" height="32" viewBox="0 0 32 32" fill="none" xmlns="http://www.w3.org/2000/svg">
<path opacity="0.1" fill-rule="evenodd" clip-rule="evenodd" d="M0 16C0 7.16344 7.16344 0 16 0C24.8366 0 32 7.16344 32 16C32 24.8366 24.8366 32 16 32C7.16344 32 0 24.8366 0 16Z" fill="white"/>
<g clip-path="url(#clip0_150_22)">
<path d="M25.0003 16.0553C25.0003 11.0535 20.9705 6.99902 16.0003 6.99902C11.0278 7.00015 6.998 11.0535 6.998 16.0564C6.998 20.5755 10.2898 24.3218 14.5918 25.0013V18.6731H12.308V16.0564H14.594V14.0595C14.594 11.7904 15.9384 10.5371 17.9938 10.5371C18.9793 10.5371 20.0086 10.7138 20.0086 10.7138V12.9413H18.8735C17.7564 12.9413 17.4076 13.6399 17.4076 14.3565V16.0553H19.9029L19.5046 18.672H17.4065V25.0001C21.7085 24.3206 25.0003 20.5744 25.0003 16.0553Z" fill="white"/>
</g>
<defs>
<clipPath id="clip0_150_22">
<rect width="18" height="18" fill="white" transform="translate(7 7)"/>
</clipPath>
</defs>
</svg>
