<svg width="42" height="42" viewBox="0 0 42 42" fill="none" xmlns="http://www.w3.org/2000/svg">
<path d="M19.25 29.75L22.75 33.25C23.0947 33.5947 23.504 33.8682 23.9544 34.0547C24.4048 34.2413 24.8875 34.3373 25.375 34.3373C25.8625 34.3373 26.3452 34.2413 26.7956 34.0547C27.246 33.8682 27.6553 33.5947 28 33.25C28.3447 32.9053 28.6182 32.496 28.8047 32.0456C28.9913 31.5952 29.0873 31.1125 29.0873 30.625C29.0873 30.1375 28.9913 29.6548 28.8047 29.2044C28.6182 28.754 28.3447 28.3447 28 28M24.5004 24.5L28.8754 28.875C29.5716 29.5712 30.5158 29.9623 31.5004 29.9623C32.485 29.9623 33.4292 29.5712 34.1254 28.875C34.8216 28.1788 35.2127 27.2346 35.2127 26.25C35.2127 25.2655 34.8216 24.3212 34.1254 23.625L27.3354 16.835C26.351 15.8519 25.0167 15.2996 23.6254 15.2996C22.2341 15.2996 20.8998 15.8519 19.9154 16.835L18.3754 18.375C17.6792 19.0712 16.735 19.4623 15.7504 19.4623C14.7658 19.4623 13.8216 19.0712 13.1254 18.375C12.4292 17.6788 12.0381 16.7346 12.0381 15.75C12.0381 14.7655 12.4292 13.8212 13.1254 13.125L18.0429 8.20753C19.6393 6.61528 21.7212 5.60099 23.959 5.32523C26.1968 5.04947 28.4627 5.52798 30.3979 6.68503L31.2204 7.17503C31.9655 7.62475 32.8515 7.78073 33.7054 7.61253L36.7504 7.00003M36.75 5.25L38.5 24.5H35M5.25 5.25L3.5 24.5L14.875 35.875C15.5712 36.5712 16.5154 36.9623 17.5 36.9623C18.4846 36.9623 19.4288 36.5712 20.125 35.875C20.8212 35.1788 21.2123 34.2346 21.2123 33.25C21.2123 32.2654 20.8212 31.3212 20.125 30.625M5.25 7H19.25" stroke="white" stroke-width="2" stroke-linecap="round" stroke-linejoin="round"/>
</svg>
