<svg width="42" height="42" viewBox="0 0 42 42" fill="none" xmlns="http://www.w3.org/2000/svg">
<path d="M19.25 21H22.75C23.6783 21 24.5685 20.6313 25.2249 19.9749C25.8813 19.3185 26.25 18.4283 26.25 17.5C26.25 16.5717 25.8813 15.6815 25.2249 15.0251C24.5685 14.3687 23.6783 14 22.75 14H17.5C16.45 14 15.575 14.35 15.05 15.05L5.25 24.5M12.25 31.4996L15.05 29.0496C15.575 28.3496 16.45 27.9996 17.5 27.9996H24.5C26.425 27.9996 28.175 27.2996 29.4 25.8996L37.45 18.1996C38.1253 17.5614 38.5194 16.6811 38.5457 15.7524C38.572 14.8236 38.2282 13.9224 37.59 13.2471C36.9518 12.5718 36.0715 12.1777 35.1427 12.1514C34.214 12.1252 33.3128 12.4689 32.6375 13.1071L25.2875 19.9321M3.5 22.75L14 33.25" stroke="white" stroke-width="2" stroke-linecap="round" stroke-linejoin="round"/>
</svg>
