<svg width="42" height="42" viewBox="0 0 42 42" fill="none" xmlns="http://www.w3.org/2000/svg">
<path d="M38.5 29.61V34.86C38.502 35.3474 38.4021 35.8298 38.2069 36.2763C38.0116 36.7229 37.7253 37.1238 37.3661 37.4532C37.007 37.7827 36.583 38.0336 36.1213 38.1897C35.6596 38.3459 35.1704 38.4039 34.685 38.36C29.3 37.7749 24.1273 35.9347 19.5825 32.9875C15.3542 30.3006 11.7693 26.7158 9.08251 22.4875C6.12497 17.9221 4.28443 12.7242 3.71001 7.31499C3.66627 6.83105 3.72379 6.34332 3.87888 5.88283C4.03398 5.42234 4.28325 4.99919 4.61085 4.64032C4.93844 4.28145 5.33716 3.99473 5.78164 3.7984C6.22611 3.60207 6.7066 3.50044 7.19251 3.49999H12.4425C13.2918 3.49163 14.1151 3.79237 14.7591 4.34617C15.403 4.89996 15.8236 5.66902 15.9425 6.50999C16.1641 8.1901 16.575 9.83976 17.1675 11.4275C17.403 12.0539 17.4539 12.7346 17.3143 13.389C17.1748 14.0435 16.8505 14.6442 16.38 15.12L14.1575 17.3425C16.6487 21.7237 20.2763 25.3513 24.6575 27.8425L26.88 25.62C27.3558 25.1495 27.9565 24.8252 28.611 24.6856C29.2654 24.5461 29.9461 24.597 30.5725 24.8325C32.1602 25.4249 33.8099 25.8359 35.49 26.0575C36.3401 26.1774 37.1165 26.6056 37.6714 27.2606C38.2264 27.9156 38.5213 28.7517 38.5 29.61Z" stroke="black" stroke-width="2" stroke-linecap="round" stroke-linejoin="round"/>
</svg>
