<svg width="42" height="42" viewBox="0 0 42 42" fill="none" xmlns="http://www.w3.org/2000/svg">
<path d="M13.125 7.47253L28.875 16.485M5.77509 12.25L21.0001 21M21.0001 21L36.2251 12.25M21.0001 21L21 38.5M36.75 13.9998C36.7494 13.3861 36.5874 12.7832 36.2802 12.2519C35.973 11.7205 35.5315 11.2792 35 10.9723L22.75 3.97233C22.2179 3.66514 21.6144 3.50342 21 3.50342C20.3856 3.50342 19.7821 3.66514 19.25 3.97233L7 10.9723C6.46846 11.2792 6.02697 11.7205 5.71981 12.2519C5.41265 12.7832 5.25063 13.3861 5.25 13.9998V27.9998C5.25063 28.6136 5.41265 29.2164 5.71981 29.7478C6.02697 30.2792 6.46846 30.7204 7 31.0273L19.25 38.0273C19.7821 38.3345 20.3856 38.4962 21 38.4962C21.6144 38.4962 22.2179 38.3345 22.75 38.0273L35 31.0273C35.5315 30.7204 35.973 30.2792 36.2802 29.7478C36.5874 29.2164 36.7494 28.6136 36.75 27.9998V13.9998Z" stroke="white" stroke-width="2" stroke-linecap="round" stroke-linejoin="round"/>
</svg>
