<svg width="42" height="42" viewBox="0 0 42 42" fill="none" xmlns="http://www.w3.org/2000/svg">
<path d="M17.5 17.5V15.75C17.5 14.8217 17.8687 13.9315 18.5251 13.2751C19.1815 12.6187 20.0717 12.25 21 12.25C21.9283 12.25 22.8185 12.6187 23.4749 13.2751C24.1313 13.9315 24.5 14.8217 24.5 15.75V17.5C24.5 16.5717 24.8687 15.6815 25.5251 15.0251C26.1815 14.3687 27.0717 14 28 14C28.9283 14 29.8185 14.3687 30.4749 15.0251C31.1313 15.6815 31.5 16.5717 31.5 17.5V19.25C31.5 18.3217 31.8689 17.4315 32.5253 16.7751C33.1817 16.1187 34.0719 15.75 35.0002 15.75C35.9284 15.75 36.8187 16.1187 37.4751 16.7751C38.1314 17.4315 38.5002 18.3217 38.5002 19.25L38.5 24.5C38.5 28.213 37.025 31.774 34.3995 34.3995C31.774 37.025 28.213 38.5 24.5 38.5H21.0002C16.1002 38.5 13.1252 36.995 10.5177 34.405L4.21768 28.105C3.61557 27.4382 3.29296 26.5653 3.31665 25.6671C3.34034 24.769 3.70851 23.9144 4.34494 23.2802C4.98137 22.646 5.83731 22.2809 6.73553 22.2603C7.63376 22.2398 8.50547 22.5655 9.17018 23.17L12.2502 26.25M17.5 16.625V7C17.5 6.07174 17.1313 5.1815 16.4749 4.52513C15.8185 3.86875 14.9283 3.5 14 3.5C13.0717 3.5 12.1815 3.86875 11.5251 4.52513C10.8687 5.1815 10.5 6.07174 10.5 7V24.5" stroke="white" stroke-width="2" stroke-linecap="round" stroke-linejoin="round"/>
</svg>
